<?xml version="1.0" encoding="utf-8"?>
<!-- Generator: Adobe Illustrator 23.0.3, SVG Export Plug-In . SVG Version: 6.00 Build 0)  -->
<svg version="1.1" id="Capa_1" xmlns="http://www.w3.org/2000/svg" xmlns:xlink="http://www.w3.org/1999/xlink" x="0px" y="0px"
	 viewBox="0 0 1200 1200" enable-background="new 0 0 1200 1200" xml:space="preserve">
<path d="M230.177,334.467c-1.943-2.187-7.099-7.988-4.503-14.343c0.427-1.045,0.994-1.913,1.494-2.679
	c0.172-0.263,0.4-0.615,0.562-0.889c-0.382-0.758-0.924-2.002-0.742-3.59c0.191-1.693,1.096-2.827,1.69-3.496
	c-0.097-0.325-0.253-0.755-0.368-1.075c-0.349-0.965-0.747-2.061-0.911-3.318c-0.591-4.552,2.813-9.732,7.287-11.092
	c2.273-0.691,4.458-2.227,6.15-4.329c0.387-0.484,0.747-0.981,1.107-1.478l0.656-0.9c1.566-2.107,3.289-4.025,4.955-5.879
	l12.994-14.466c0.881-0.981,1.878-2.09,3.128-3.066c1.333-1.045,2.773-1.792,4.044-2.453c1.478-0.766,2.751-1.429,3.412-2.281
	c0.279-0.363,0.502-0.777,0.739-1.185c0.798-1.381,1.892-3.275,4.06-4.431c1.712-0.916,3.437-0.997,4.694-1.059
	c0.29-0.013,0.58-0.024,0.865-0.054c0.371-0.038,0.758-0.051,1.145-0.056c1.338-1.196,2.544-2.528,3.59-3.966
	c0.887-1.217,2.364-1.854,3.866-1.663c1.043,0.134,1.978,0.658,2.633,1.44c0.736,0,1.467,0.196,2.115,0.583
	c1.034,0.618,1.746,1.655,1.953,2.843l4.189,24.268c0.234,1.36,0.588,3.418-0.231,5.578c-0.674,1.784-1.886,2.939-2.773,3.783
	c-0.317,0.304-0.677,0.648-0.811,0.844c-0.134,0.196-0.231,0.419-0.339,0.634c-0.392,0.785-0.927,1.857-1.935,2.819
	c-1.601,1.537-4.592,3.015-9.662,1.306l-0.481-0.161c-0.639-0.22-1.652-0.567-2.174-0.61c-0.599,0.865-1.056,3.141-0.75,3.985
	c0.414,0.841,1.674,1.416,2.625,1.19c1.247-0.304,2.569-0.019,3.571,0.787c1.005,0.803,1.575,2.031,1.545,3.316
	c-0.097,4.001-2.851,6.586-4.861,8.475l-0.715,0.677c-0.502,0.486-0.846,1-1.043,1.389c-0.02,0.039,2.41-0.269,2.66-0.395
	c1.392-0.703,2.851-1.991,3.703-3.289c0.719-1.096,1.267-2.304,2.071-3.339c2.851-3.67,7.774-3.765,11.752-1.996
	c2.566,1.139,4.632,2.867,6.457,4.39c0.658,0.548,1.314,1.096,1.991,1.612c3.445,2.62,7.128,3.934,10.388,3.649
	c0.774-0.064,1.556-0.204,2.338-0.339c2.346-0.403,5.264-0.908,8.268,0.132c3.377,1.177,6.081,4.071,7.617,8.147
	c0.65,1.722,1.032,3.41,1.4,5.041c0.218,0.967,0.433,1.937,0.715,2.886c1.628,5.481,5.715,10.151,10.93,12.494
	c0.352,0.159,1.607-0.054,2.432-0.193c0.97-0.161,2.066-0.347,3.246-0.363c1.04,0.005,1.988,0.067,2.837,0.223
	c0.333-0.699,0.822-1.378,1.542-1.967c1.271-1.034,2.639-1.271,3.66-1.319c0.003-0.027,0.005-0.056,0.011-0.089l0.814-8.784
	c0.07-0.744,0.255-2.7,1.91-4.132c2.01-1.725,4.318-1.276,5.299-1.086c0.967,0.188,2.058-0.312,2.958-1.169
	c1.231-1.174,2.168-2.899,3.16-4.729c0.591-1.088,2.391-4.409,1.647-5.763c-0.164-0.296-0.373-0.594-0.58-0.9
	c-1.08-1.601-3.332-4.933-1.016-8.448c9.179-13.918,13.816-31.27,16.831-44.834c0.379-1.709,0.846-3.818,2.33-5.694
	c2.195-2.781,5.965-3.729,8.861-2.281c0.04-0.124,0.083-0.247,0.134-0.373c0.575-1.47,1.553-2.469,2.201-3.13l20.367-20.724
	c0.465-0.473,1.04-0.828,1.674-1.034l73.103-23.613c1.642-1.096,3.283-2.198,4.885-3.353c7.529-5.444,15.557-13.641,22.643-20.875
	c1.287-1.314,2.544-2.598,3.762-3.829c10.105-10.202,17.994-19.752,24.061-29.134c-0.016-0.553,0.051-1.123,0.204-1.682
	c2.918-10.807,6.424-21.571,9.813-31.982c0.247-0.75,0.701-2.128,1.9-3.251c0.664-0.621,2.902-2.257,5.154-2.055
	c0.806,0.048,1.561,0.298,2.206,0.717c-0.172-0.395-0.352-0.79-0.532-1.193c-1.561-3.445-3.501-7.73-1.763-12.408
	c0.357-0.951,0.811-1.76,1.214-2.477c0.212-0.379,0.516-0.919,0.642-1.239c-0.164-0.261-0.484-0.658-0.656-0.871L568.1,69.796
	c-2.037-2.536-3.455-3.068-3.721-3.071c-1.343,0.747-2.948,0.674-4.235-0.175c-1.282-0.846-1.945-2.346-1.787-3.877l0.422-4.065
	c0.161-1.553,1.182-2.88,2.644-3.434c4.347-1.65,8.724-0.927,12.596-0.287l1.55,0.25c3.982,0.607,6.69,0.245,8.053-1.086
	c0.204-0.202,0.403-0.427,0.602-0.65c1.008-1.131,2.528-2.84,5.065-3.291c3.109-0.556,5.535,1.166,6.715,1.996
	c3.7,2.604,7.343,5.379,10.839,8.254c0.465-0.376,1.053-0.76,1.781-1.032c1.663-0.626,3.45-0.476,5.035,0.414
	c1.916,1.075,3.386,3.203,3.84,5.554c0.062,0.322,0.113,0.653,0.156,0.986c2.33-0.32,5.581,0.379,9.393,4.342l10.14,10.535
	c1.255,1.3,2.98,3.087,3.7,5.683c0.543,1.956,0.347,3.77,0.188,5.226c-0.051,0.476-0.107,0.954-0.118,1.429
	c-0.003,0.091,0,0.18,0.008,0.261c0.578,0.024,1.306,0.102,2.101,0.384c1.652,0.583,2.948,1.816,3.641,3.469
	c1.048,2.493,0.489,5.382-0.384,7.255l-0.336,0.704c-0.019,0.043-0.04,0.086-0.064,0.132c0.946,0.304,1.883,0.61,2.821,0.916
	c1.932,0.629,3.864,1.263,5.874,1.851c1.139,0.333,2.058,1.134,2.555,2.166c0.304,0.043,0.529,0.056,0.752,0.07
	c1.177,0.075,2.786,0.177,4.401,1.002c2.808,1.435,3.899,4.036,4.694,5.935c0.306,0.734,0.623,1.491,0.927,1.886
	c0.562,0.731,2.064,0.932,3.165,0.416c0.202-0.094,0.4-0.202,0.602-0.306c1-0.529,2.37-1.252,4.17-1.317
	c0.089-0.003,0.18-0.005,0.269-0.005c4.396,0,6.846,3.899,7.779,5.382c4.724,7.505,9.178,15.571,7.287,24.429l-0.191,0.828
	c-0.11,0.468-0.279,1.177-0.258,1.413c0.073,0.03,0.551,0.425,2.096,1.174l3.52,1.706c0.169,0.081,0.438,0.21,0.717,0.336
	c0.078-0.228,0.177-0.451,0.296-0.666c0.607-1.099,1.685-1.862,2.923-2.072c4.267-0.693,8.896,1.806,11.204,6.158
	c1.765,3.326,2.023,6.973,2.227,9.901l0.564,7.921c0.234,3.273-0.328,6.027-1.548,8.029c0.167,0.349,0.314,0.688,0.451,1.002
	c0.142,0.328,0.336,0.771,0.497,1.083c0.094-0.016,0.21-0.03,0.328-0.038c0.596-0.046,1.349-0.105,2.184-0.03
	c2.485,0.223,4.828,1.695,6.253,3.936c0.293,0.459,0.54,0.943,0.742,1.438c5.105-3.99,8.638-3.036,10.721-1.505
	c0.365,0.269,0.688,0.559,0.978,0.857c1.932-1.687,4.331-2.824,6.68-3.101c2.499-0.301,4.866,0.368,6.701,1.865
	c1.11,0.906,1.83,1.948,2.405,2.789c0.234,0.336,0.454,0.685,0.734,0.983c0.322,0.352,0.927,0.564,1.618,0.521
	c0.666-0.03,1.266-0.285,1.558-0.669c1.352-1.749,3.837-2.128,5.648-0.854c0.247,0.188,1.951-0.21,4.243-2.184
	c2.469-2.131,7.609-6.58,13.359-4.358c0.411-0.61,0.739-1.287,1.08-1.991c0.723-1.494,1.542-3.187,2.789-4.748
	c1.953-2.442,5.011-4.022,7.98-4.119c2.281-0.089,4.53,0.803,6.059,2.48c0.306,0.336,0.58,0.704,0.844,1.077
	c0.073,0.099,0.137,0.202,0.215,0.293c0.067,0.003,0.325,0.089,0.57,0.191l6.666,2.792c2.206,0.927,7.064,2.966,9.063,6.537
	c0.148-0.064,0.29-0.126,0.419-0.185c2.021-0.889,5-2.211,8.101-1.112c0.03-0.094,0.062-0.191,0.091-0.282
	c1.287-3.759,4.863-6.532,9.332-7.239c3.396-0.54,6.701,0.15,9.35,0.704c1.26,0.263,3.611,0.752,5.293,2.69
	c0.623,0.72,1.051,1.502,1.381,2.236c3.265-0.79,6.768,1.225,8.423,4.912c0.247,0.548,0.459,1.126,0.666,1.704
	c1.182,0.14,2.397,0.588,3.528,1.352l0.615,0.43c0.086,0.062,0.172,0.129,0.258,0.191c0.344-0.142,0.691-0.271,1.045-0.373
	c2.679-0.728,5.573,0.212,7.389,2.195c2.805-1.123,6.142-0.29,8.378,1.604c1.615,1.362,2.574,2.991,3.42,4.428
	c0.22,0.376,0.441,0.75,0.674,1.112c1.822,2.835,6.432,5.965,10.068,6.833c1.279,0.306,2.335,1.201,2.845,2.413
	c0.511,1.214,0.411,2.596-0.266,3.724c-11.852,19.77-24.585,39.35-37.872,58.242c1.083,0.605,2.405,0.991,3.813,1.077
	c2.348,0.126,5.03-0.422,8.383-1.779l0.263-0.11c1.73-0.701,4.1-1.65,6.803-1.201c3.676,0.634,5.9,3.469,7.228,5.162l16.559,21.084
	c0.11,0.14,0.21,0.285,0.301,0.438c1.147,1.929,1.209,4.24,0.169,6.336c-1.249,2.507-3.869,4.331-6.677,4.646
	c-2.112,0.22-3.95-0.185-5.575-0.559c-0.709-0.161-1.419-0.336-2.136-0.4c-0.368-0.038-0.704,0.032-0.94,0.118
	c-0.435,1.83-2.08,3.168-4.012,3.168c-3.944-0.07-7.521-2.722-9.189-6.758c-0.567-1.368-0.879-2.768-1.051-4.124
	c-2.448,0.099-4.887-0.064-7.311-0.484l-0.298-0.051c-0.459-0.081-1.163-0.215-1.386-0.175c0.008,0.038-0.164,0.193-0.344,0.336
	c-0.387,0.301-0.776,0.596-1.188,0.857c-2.929,1.843-6.118,1.725-8.679,1.615c-1.599-0.059-3.111-0.118-3.936,0.309
	c-0.618,0.328-1.279,2.012-1.811,3.367c-1.016,2.593-2.281,5.82-5.532,7.604c-0.844,0.468-1.822,0.631-2.768,0.435
	c-4.562-0.879-8.281-1.448-11.312-0.196c-0.457,0.191-0.911,0.422-1.365,0.653c-1.725,0.865-3.837,1.932-6.548,1.795
	c-1.607-0.091-2.931-0.607-3.998-1.024c-0.406-0.156-0.809-0.325-1.225-0.43c-2.311-0.583-5.24,1.432-9.025,6.126
	c-1.424,1.763-3.998,2.05-5.777,0.645c-4.484-3.555-11.793-3.235-15.958,0.699c-1.029,0.975-1.967,2.203-2.961,3.504
	c-1.214,1.588-2.472,3.232-4.106,4.724c-2.743,2.501-6.123,4.17-9.778,4.826c-1.15,0.207-2.34,0.312-3.531,0.411
	c-2.066,0.169-3.85,0.32-4.866,1.091c-0.634,0.484-1.252,1.456-1.908,2.483c-0.263,0.416-0.529,0.833-0.803,1.236
	c-2.875,4.235-7.064,7.628-11.798,9.557c-1.927,0.787-3.853,1.306-5.715,1.806c-1.446,0.39-2.813,0.758-4.089,1.228
	c-3.128,1.15-3.845,1.913-4.076,2.913l-3.799,16.602c-1.967,8.595-4.412,19.292-11.282,27.243c-0.417,0.486-0.857,0.967-1.298,1.446
	c-1.094,1.193-2.125,2.316-2.644,3.437c-0.884,1.905-0.688,4.624,0.575,8.09c0.39,1.064,0.83,2.112,1.268,3.163
	c1.099,2.628,2.236,5.344,2.757,8.426c2.112,12.513-9.557,17.497-17.277,20.797c-2.252,0.962-4.377,1.867-6.035,2.821
	c-5.143,2.953-11.661,7.929-13.521,14.872c-1.107,4.13-0.403,8.757,1.884,12.379c0.605,0.959,2.021,3.203,1.069,5.876
	c-0.674,1.908-2.217,2.878-2.797,3.243c-3.369,2.109-7.247,3.334-11.191,3.603c0.105,0.811,0.14,1.652,0.078,2.523
	c-0.129,1.776-0.712,3.437-1.623,4.826c0.991,1.002,1.913,2.042,2.824,3.066c1.91,2.147,3.713,4.175,5.815,5.454
	c0.287,0.172,0.586,0.339,0.881,0.505c1.056,0.588,2.37,1.322,3.528,2.48c2.456,2.472,3.125,6.105,1.628,8.845
	c-0.373,0.682-0.828,1.231-1.292,1.679c3.372,2.518,6.946,5.938,8.319,10.758c0.602,2.112,0.72,4.286,0.825,6.204
	c0.159,2.899,0.322,4.726,1.282,5.618c0.134,0.126,0.285,0.242,0.435,0.363c0.527,0.422,1.04,0.86,1.489,1.365
	c0.637,0.723,1.045,1.435,1.37,2.007l0.285,0.484c0.806,1.282,2.378,2.112,3.931,2.05c1.206-0.038,2.295,0.376,3.114,1.193
	c0.825,0.817,1.266,1.945,1.217,3.106c-0.086,1.994,0.038,3.987,0.371,5.954l7.518,3.721c1.193,0.588,3.001,1.48,4.331,3.197
	c1.352,1.763,1.728,3.727,2.004,5.162c0.091,0.478,0.172,0.962,0.322,1.416c0.416,1.276,1.679,2.569,3.015,3.936
	c0.433,0.443,0.862,0.884,1.279,1.333c4.506,4.874,4.573,9.017,3.834,11.634c-0.425,1.515-1.182,2.703-1.789,3.66
	c-1.908,2.996-3.619,5.798-5.334,8.601c-0.626,1.024-1.252,2.047-1.886,3.082l2.754,0.282c11.957,1.228,24.319,2.499,36.346,5.543
	c6.717,1.701,10.495,4.904,11.231,9.514c0.279,1.755,0.008,3.391-0.21,4.702c-0.081,0.484-0.193,1.158-0.21,1.577
	c0.336,0.078,1.034,0.161,2.397,0.075c1.196-0.086,2.373,0.384,3.211,1.247c0.838,0.865,1.257,2.053,1.147,3.251
	c-0.175,1.867-0.177,3.735-0.18,5.715c0,0.685,0,1.378-0.008,2.082l27.111,0.817c3.38,0.094,7.139-0.083,10.777-0.263
	c2.867-0.142,5.809-0.287,8.673-0.301c1.043-1.806,2.424-3.404,4.076-4.713c1.806-1.424,3.794-2.378,5.549-3.222
	c1.438-0.691,2.794-1.341,3.861-2.147c0.973-0.734,1.9-1.744,2.883-2.81l0.86-0.932c3.759-3.987,8.026-7.308,12.153-10.522
	l7.972-6.209c1.15-0.9,3.845-3.023,7.263-2.136c1.687,0.433,3.111,1.537,4.014,3.114c0.989,1.728,1.239,3.81,0.691,5.712
	c-0.4,1.373-1.362,3.265-3.678,4.949l2.383,2.636c0.508,0.562,1.55,1.717,1.803,3.493c0.322,2.276-0.696,4.321-3.025,6.078
	c-0.841,0.634-1.601,1.129-2.365,1.618c-0.116,0.075-0.228,0.148-0.344,0.22c-1.166,20.396-1.3,41.029-0.406,61.466
	c0.513,0.016,1.024,0.083,1.518,0.201c3.171,0.755,5.245,2.985,6.758,4.616c0.682,0.731,1.819,1.956,2.555,2.112
	c0.556,0.11,1.722-0.207,2.579-0.438l9.372-2.574c0.938-0.258,1.913-0.175,2.773,0.215c0.191-0.118,0.43-0.293,0.672-0.527
	c1.843-1.781,4.761-4.6,8.826-3.66c0.107,0.024,0.218,0.054,0.325,0.083c0.234-0.169,0.47-0.328,0.712-0.473
	c1.808-1.077,4.055-1.335,6.169-0.712c1.994,0.586,3.665,1.902,4.632,3.635c1.776-0.059,3.445,0.046,5.07,0.137
	c1.76,0.097,3.418,0.193,5.046,0.097c1.738-0.075,3.332,0.873,4.03,2.456c7.604,17.258,18.276,33.879,28.597,49.955
	c8.585,13.37,17.46,27.192,24.631,41.443c0.516,1.024,0.583,2.217,0.183,3.291l-5.266,14.168c-1.016,2.733-2.168,5.833-4.339,8.528
	c-0.25,0.312-0.51,0.61-0.771,0.908c-0.4,0.459-0.854,0.981-0.978,1.268c-0.175,0.408-0.137,1.446-0.113,2.203
	c0.524,15.143,0.218,30.894-9.557,42.394l-0.363,0.422c-0.185,0.215-0.382,0.443-0.556,0.658c0.054,0.097,0.102,0.196,0.145,0.293
	c0.159,0.202,1.072,0.734,1.618,1.051l0.406,0.236c3.232,1.91,4.93,4.31,5.049,7.134c0.11,2.598-1.231,4.549-2.117,5.839
	l-0.247,0.36c-0.876,1.3-1.013,2.27-0.922,2.456c0.153,0.32,1.131,0.94,1.779,1.352c0.871,0.554,1.857,1.18,2.786,2.037
	c2.246,2.072,3.568,5.022,3.619,8.085c0.021,1.65-0.387,3.05-1.217,4.167c-2.037,2.735-5.17,2.464-6.674,2.343
	c-0.266-0.024-0.508-0.051-0.798-0.054c0.081,0.019-0.038,0.167-0.124,0.371c-0.116,0.274-0.296,1.096-0.414,1.642
	c-0.296,1.362-0.634,2.905-1.373,4.2c-2.811,4.944-6.817,9.203-11.583,12.311c-0.145,0.094-0.271,0.172-0.382,0.242
	c-0.011,0.658,0.021,1.322,0.048,1.983c0.062,1.432,0.132,3.055-0.126,4.761c-0.591,3.92-2.945,7.045-6.142,8.16
	c-0.121,0.043-0.247,0.083-0.373,0.121c-0.75,3.2,0.83,6.642,1.883,8.485c0.975,1.709,2.163,3.345,3.423,5.081
	c1.282,1.765,2.606,3.592,3.775,5.597c0.664,1.139,1.352,2.539,1.419,4.27c0.089,2.252-0.887,4.036-1.854,5.481
	c-1.478,2.214-3.152,4.291-4.772,6.298c-3.52,4.361-6.844,8.48-7.505,13.193c-0.618,4.415,1.075,9.023,3.807,14.582
	c0.642,1.309,1.174,2.577,1.685,3.807c1.11,2.673,1.986,4.785,3.856,6.556c3.966,3.762,7.494,5.71,10.78,5.954
	c0.398,0.03,0.809,0.043,1.223,0.059c2.458,0.086,5.825,0.207,8.3,2.926c3.267,3.592,2.203,8.956-0.54,12.395
	c-0.822,1.035-1.733,1.918-2.539,2.698c-0.919,0.889-1.787,1.728-2.27,2.55c-0.876,1.491-0.965,3.617-1.064,6.078
	c-0.113,2.743-0.242,5.855-1.601,8.84c-0.728,1.596-2.359,2.539-4.135,2.399c-2.98-0.301-5.938,2.322-7.757,4.839
	c-1.129,1.564-2.099,3.31-3.128,5.161c-1.236,2.23-2.515,4.533-4.184,6.707c-2.209,2.875-4.858,5.207-7.419,7.464
	c-2.571,2.265-5.03,4.431-6.744,6.908c1.024,0.795,2.303,1.29,3.571,1.325c1.553,0.04,2.95,0.951,3.617,2.354
	c2.531,5.336,0.478,11.425-6.099,18.096c-1.005,1.021-2.152,1.797-3.165,2.48c-0.76,0.513-1.478,1-1.908,1.435
	c-0.725,0.736-1.703,1.174-2.738,1.225l-6.349,0.312c0.274,1.921,0.793,3.805,1.54,5.567c0.183,0.433,0.379,0.857,0.572,1.284
	c0.846,1.851,1.803,3.953,1.991,6.467c0.43,5.815-3.523,10.466-5.884,13.244c-6.161,7.247-13.58,15.028-23.696,15.587
	c-1.048,0.062-2.093,0.027-3.136-0.005c-0.852-0.027-1.704-0.065-2.545-0.003c-0.994,0.059-1.918-0.035-2.741-0.118
	c-0.51-0.054-1.282-0.118-1.542-0.089c-0.5,0.215-1.002,0.32-1.497,0.32c-0.774,0-1.534-0.253-2.244-0.72l-21.549-14.214
	c-3.071-2.026-6.897-4.549-9.377-8.421c-0.32-0.5-0.613-1.018-0.905-1.534c-0.433-0.774-0.844-1.505-1.236-1.873
	c-0.618-0.586-1.9-0.954-3.259-1.341c-1.284-0.368-2.741-0.785-4.17-1.516c-2.665-1.362-4.573-3.474-6.255-5.339
	c-1.58-1.746-2.945-3.256-4.433-3.678c-0.312-0.086-0.65-0.153-0.991-0.223c-1.779-0.365-4.756-0.978-6.352-3.864
	c-1.365-2.477-0.742-5.014-0.368-6.529c1.147-4.769,0.199-9.751-2.48-13.561c-2.676-3.81-7.04-6.39-11.672-6.897
	c-0.734-0.081-1.481-0.115-2.225-0.153c-1.902-0.094-4.06-0.201-6.247-0.927c-1.945-0.645-3.56-1.655-4.987-2.545
	c-11.93-7.462-21.759-16.885-31.268-25.996c-0.787-0.76-2.493-0.701-5.215-0.519c-2.295,0.151-4.896,0.328-7.486-0.376
	c-3.482-0.946-5.962-3.187-8.149-5.167c-1.215-1.099-2.362-2.139-3.523-2.81c-1.064-0.618-2.383-1.069-3.78-1.545
	c-1.043-0.355-2.082-0.715-3.09-1.142c-3.391-1.438-6.223-3.522-8.961-5.535c-0.712-0.524-1.424-1.051-2.144-1.558
	c-5.328-3.77-11.653-6.344-17.137-8.367l-26.144-9.646c-2.418-0.892-5.154-1.902-7.617-3.633c-2.386-1.669-4.149-3.724-5.855-5.71
	c-0.916-1.069-1.781-2.077-2.692-2.958c-3.958-3.834-9.616-5.844-15.1-5.425c-1.757,0.134-3.461-0.881-4.143-2.542
	c-2.074-5.03-8.233-7.832-14.187-10.541l-1.029-0.468c-4.315-1.969-8.066-4.769-11.691-7.478c-4.288-3.2-8.34-6.223-12.892-7.588
	c-2.794-0.838-4.734-3.563-4.941-6.94c-0.043-0.677-0.019-1.36,0.011-2.042c0.024-0.553,0.048-1.126-0.013-1.421
	c-0.215-1.043-2.284-2.034-4.283-2.993c-1.284-0.618-2.614-1.258-3.88-2.08c-3.727-2.421-6.005-6.04-8.018-9.235
	c-1.317-2.096-2.563-4.073-4.073-5.57c-2.166-2.141-5.221-3.646-8.453-5.24c-4.866-2.397-10.38-5.116-13.4-10.694
	c-1.247-2.297-1.841-4.732-2.367-6.881c-0.218-0.892-0.435-1.784-0.701-2.657c-0.717-2.332-1.798-3.912-2.958-4.334
	c-0.236-0.086-0.481-0.148-0.723-0.212c-1.026-0.277-2.434-0.656-3.743-1.738c-2.042-1.682-2.596-4.038-2.958-5.597l-0.11-0.457
	c-0.349-1.429-0.919-2.781-1.701-4.025c-0.347-0.559-0.766-1.045-1.118-1.386c-0.978,0.341-2.077,0.314-3.066-0.124
	c-1.607-0.72-2.579-2.381-2.424-4.135l0.758-8.485c0.03-0.317,0.089-1.005,0.059-1.37c-0.245-0.175-0.717-0.427-1.051-0.607
	c-0.349-0.188-0.699-0.376-1.032-0.575c-3.34-1.978-4.882-5.258-3.928-8.356c1.112-3.622,4.554-4.447,6.406-4.893
	c0.39-0.091,0.779-0.175,1.129-0.304c1.287-0.468,2.061-3.208,2.077-7.33c0.035-9.573-0.382-18.639-5.793-24.343
	c-0.884-0.932-1.959-1.859-3.098-2.837c-3.496-3.015-7.848-6.766-7.964-12.663c-0.013-0.798,0.062-1.599,0.15-2.394
	c0.07-0.613,0.14-1.247,0.081-1.558c-0.134-0.717-1.416-1.704-2.655-2.655c-1.158-0.889-2.472-1.897-3.587-3.203
	c-1.534-1.792-2.399-3.799-3.163-5.573c-0.54-1.255-1.051-2.442-1.695-3.281c-0.567-0.744-1.435-1.472-2.351-2.244
	c-0.862-0.725-1.722-1.456-2.501-2.268c-2.386-2.485-3.351-5.774-2.7-8.921c-1.118-2.459-3.044-4.541-5.425-5.82
	c-0.422-0.228-0.865-0.449-1.314-0.672c-2.821-1.405-7.085-3.525-7.768-8.3c-0.094-0.664-0.094-1.333-0.078-2.002
	c0.005-0.207,0.024-0.417,0-0.621c-0.046-0.048-0.185-0.236-0.312-0.435c-0.164-0.266-0.331-0.529-0.481-0.801
	c-1.102-1.951-1.523-3.963-1.894-5.739c-2.171-10.299-4.92-17.879-8.695-24.053c-4.597-7.513-10.949-12.986-17.884-15.412
	c-1.677-0.586-2.789-2.179-2.765-3.952c0.024-1.76,0.293-3.523,0.551-5.229c0.36-2.37,0.731-4.82,0.253-6.438
	c-4.124-13.862-11.68-26.622-21.853-36.902c-3.461-3.493-8.018-8.098-7.556-14.311c0.032-0.398,0.083-0.79,0.137-1.18
	c0.027-0.188,0.064-0.371,0.081-0.556c-0.196-0.196-0.519-0.47-0.75-0.669l-0.682-0.591c-5.046-4.578-6.062-11.151-6.956-16.946
	c-0.29-1.878-0.564-3.654-0.954-5.317c-1.166-4.96-3.716-9.753-6.183-14.386l-3.404-6.408c-1.188-2.233-2.413-4.538-4.098-5.943
	c-0.844-0.701-1.373-1.712-1.47-2.805c-0.089-1.013-0.212-2.386-0.462-3.442c-2.289-1.384-3.934-4.014-4.495-7.365
	c-0.099-0.599-0.175-1.206-0.247-1.819c-0.142-1.214-0.279-2.362-0.65-2.939c-0.172-0.266-0.551-0.661-0.919-1.043
	c-1.061-1.107-2.515-2.625-2.993-4.971c-0.11-0.548-0.15-1.102-0.175-1.655c-0.003-0.054-0.003-0.11-0.005-0.164
	c-0.185-0.202-0.527-0.511-0.768-0.728c-1.134-1.018-2.845-2.558-3.318-5.081c-0.236-1.279-0.078-2.362,0.04-3.152
	c0.403-2.8,0.255-5.911-0.376-8.649l-4.888-3.955c-1.271-1.029-3.015-2.437-4.014-4.683c-0.897-2.023-0.871-3.99-0.849-5.57
	c0.005-0.572,0.027-1.147-0.043-1.706c-0.202-1.599-1.475-3.375-2.655-4.917c-4.882-6.373-10.514-12.185-16.731-17.271l-0.895-0.725
	c-2.413-1.951-4.906-3.969-6.892-6.75c-2.203-3.09-3.023-7.416-2.262-11.341l-5.747-8.168c-1.652-2.348-3.525-5.011-4.734-8.114
	c-0.653-1.674-1.053-3.321-1.443-4.912c-0.414-1.687-0.803-3.281-1.435-4.613c-0.739-1.558-1.937-3.036-3.101-4.417
	c-3.584-4.235-7.523-8.227-11.702-11.865c-1.266-1.099-2.708-2.354-3.686-4.208c-1.029-1.956-0.919-3.934-0.841-5.379
	c0.011-0.188,0.024-0.425,0.03-0.637c-8.534-6.457-18.115-11.127-28.245-16.062c-9.619-4.689-19.563-9.533-28.46-16.038
	c-8.182-5.981-12.174-12.424-11.863-19.152c0.075-1.628,0.446-2.972,1.134-4.111c1.029-1.693,2.606-2.716,3.762-3.463
	c0.134-0.086,0.296-0.191,0.451-0.296c0.145-1.08,0.717-2.088,1.628-2.765c1.37-1.021,3.232-1.091,4.675-0.175l3.058,1.943
	c2.072-5.53,2.281-12.387-0.817-15.224l-11.935-10.922c-1.284-1.174-3.227-2.95-4.073-5.573c-1.395-4.345,0.836-8.093,2.461-10.828
	c0.965-1.623,1.961-3.3,1.784-4.259c-0.134-0.728-1.123-1.838-1.843-2.649L230.177,334.467z"/>
</svg>
